<?xml version="1.0" encoding="utf-8"?>
<!-- Generator: Adobe Illustrator 27.7.0, SVG Export Plug-In . SVG Version: 6.00 Build 0)  -->
<svg version="1.1" id="Layer_1" xmlns="http://www.w3.org/2000/svg" xmlns:xlink="http://www.w3.org/1999/xlink" x="0px" y="0px"
	 viewBox="0 0 150 150" style="enable-background:new 0 0 150 150;" xml:space="preserve">
<style type="text/css">
	.st0{fill:#00A651;stroke:#000000;stroke-miterlimit:10;}
	.st1{fill:#00A651;stroke:#FFFFFF;stroke-width:4;stroke-miterlimit:10;}
	.st2{fill:#FFFFFF;}
	.st3{fill:#557670;}
	.st4{fill:#0B7483;}
	.st5{fill:#B7B1A1;}
	.st6{fill:#3E5A55;}
	.st7{fill:#74BF5F;}
	.st8{fill:#629B4F;}
	.st9{fill:#425F5A;}
	.st10{fill:#E4F4F7;}
	.st11{fill:#BAE3EA;}
	.st12{fill:#EFEBE0;}
	.st13{fill:#0E1414;}
	.st14{fill:#2B403D;}
	.st15{fill:#FCB340;}
	.st16{fill:#9CCF87;}
	.st17{fill:#EE6F68;}
	.st18{fill:#75AA60;}
	.st19{fill:#13A7DD;}
	.st20{fill:#8DD7F7;}
	.st21{fill:#E0DFDA;}
	.st22{opacity:0.5;fill:#FDF7ED;}
	.st23{fill:none;}
	.st24{fill:#00A651;}
	.st25{fill:#CEC9BC;}
</style>
<g>
	<path class="st3" d="M70.45,54.52c-0.12,0.18-0.21,0.39-0.36,0.54c-2.88,2.89-5.77,5.77-8.66,8.65c-0.1,0.1-0.21,0.17-0.32,0.26
		c-0.29-0.27-0.6-0.54-0.88-0.83c-6.82-6.82-13.64-13.63-20.45-20.45c-0.41-0.41-0.79-0.83-1.19-1.25c1.39-1.41,2.77-2.81,4.15-4.22
		c0.16-0.17,0.28-0.37,0.42-0.56c0.2-0.15,0.43-0.27,0.61-0.44c3.16-3.15,6.31-6.31,9.48-9.45c0.21-0.21,0.57-0.27,0.87-0.4
		c0.63,0.71,1.31,1.38,1.88,2.12c1.64,2.14,2.77,4.54,3.43,7.16c0.49,1.95,0.85,3.92,0.84,5.93c0,0.53-0.05,1.07-0.11,1.6
		c-0.08,0.7,0.22,1.2,0.71,1.68c2.92,2.89,5.82,5.8,8.72,8.7C69.88,53.86,70.16,54.2,70.45,54.52z"/>
	<g>
		<path class="st4" d="M20.37,116.98c0.18,0.12,0.38,0.21,0.53,0.36c0.95,0.92,1.89,1.85,2.84,2.77c0,0.04,0,0.08,0,0.12
			c0,0.04,0,0.08,0,0.13c-0.14,0.16-0.27,0.34-0.42,0.49c-1.44,1.46-2.88,2.92-4.33,4.38c-0.21,0.22-0.44,0.42-0.66,0.63
			c-0.42-0.35-0.13-0.79-0.05-1.12c0.55-2.41,1.16-4.8,1.76-7.2C20.1,117.33,20.26,117.16,20.37,116.98z"/>
		<g>
			<path class="st5" d="M33.92,110.42c0.33,0.35,0.66,0.71,1,1.06c2.59,2.59,5.18,5.17,7.76,7.77c0.15,0.15,0.24,0.35,0.35,0.53
				c-1.01,0.28-2.01,0.59-3.02,0.84c-2.57,0.66-5.15,1.3-7.73,1.94c-1.48,0.37-2.96,0.73-4.45,1.09c-0.23,0.05-0.47,0.05-0.71,0.07
				c-0.12-0.16-0.23-0.33-0.35-0.49c-0.73-0.73-1.46-1.46-2.18-2.18c-0.15-0.15-0.31-0.3-0.46-0.45c-0.05-0.04-0.09-0.09-0.14-0.13
				c-0.04-0.03-0.08-0.07-0.12-0.1c-0.04-0.04-0.08-0.08-0.12-0.12c0-0.04,0-0.08,0-0.12c0.48-0.42,0.99-0.81,1.45-1.26
				c2.68-2.67,5.35-5.34,8.03-8.02c0.17-0.17,0.32-0.35,0.47-0.53C33.76,110.34,33.84,110.38,33.92,110.42z"/>
			<g>
				<g>
					<path class="st6" d="M51.62,73.48c-0.64-0.57-1.3-1.1-1.9-1.7c-2.7-2.69-5.39-5.38-8.08-8.09c-0.32-0.32-0.64-0.48-1.1-0.46
						c-2.6,0.16-5.19-0.05-7.69-0.78c-1.48-0.43-2.91-1.06-4.32-1.7c-1.9-0.87-3.56-2.1-5.07-3.55c-2.4-2.3-4.19-5.01-5.33-8.13
						c-0.42-1.15-0.67-2.37-0.99-3.55c0-0.51,0.05-1.03-0.02-1.54c-0.04-0.3-0.29-0.58-0.44-0.86c0-1.12,0-2.23,0-3.35
						c0.04-0.28,0.09-0.56,0.13-0.84c0.07-0.2,0.2-0.39,0.21-0.59c0.11-2.25,0.88-4.3,1.81-6.31c0.2-0.43,0.42-0.31,0.68-0.05
						c2.85,2.87,5.71,5.74,8.56,8.6c1.74,1.75,3.51,3.48,5.23,5.25c0.35,0.36,0.55,0.31,0.87-0.01c1.46-1.47,2.94-2.92,4.41-4.38
						c0.39,0.42,0.78,0.84,1.19,1.25c6.82,6.82,13.63,13.64,20.45,20.45c0.28,0.28,0.59,0.55,0.88,0.83
						C57.94,67.14,54.78,70.31,51.62,73.48z"/>
					<path class="st3" d="M98.58,126.96c-1.85-0.17-3.55-0.78-5.2-1.61c-2.02-1.01-3.86-2.29-5.57-3.76
						c-0.13-0.11-0.23-0.27-0.35-0.4c0.15-0.25,0.25-0.54,0.45-0.74c3.21-3.24,6.42-6.48,9.64-9.71c0.1-0.1,0.28-0.14,0.42-0.21
						c0.42,0.39,0.86,0.77,1.26,1.18c4.28,4.27,8.55,8.54,12.82,12.81c0.14,0.14,0.26,0.29,0.47,0.52
						c-1.89,0.92-3.76,1.64-5.79,1.92c-0.44,0.04-0.89,0.06-1.32,0.14C105.24,127.13,101.41,127.31,98.58,126.96z"/>
					<path class="st7" d="M51.62,73.48c3.16-3.17,6.32-6.34,9.48-9.52c0.11-0.09,0.23-0.16,0.32-0.26c2.89-2.88,5.78-5.76,8.66-8.65
						c0.15-0.15,0.24-0.36,0.36-0.54c0.3-0.21,0.64-0.38,0.9-0.63c3.81-3.8,7.61-7.6,11.42-11.41c1.37-1.37,2.72-2.74,4.1-4.1
						c0.18-0.18,0.46-0.26,0.69-0.39c0.44,0.45,0.87,0.91,1.32,1.36c1.78,1.79,3.58,3.57,5.36,5.36c0.86,0.86,1.7,1.74,2.55,2.61
						c0,0.04,0.01,0.07,0.01,0.11c-0.14,0.11-0.28,0.22-0.41,0.35c-20.7,20.7-41.41,41.4-62.11,62.1c-0.15,0.15-0.24,0.35-0.36,0.53
						c-0.08-0.04-0.15-0.08-0.23-0.12c-0.06-0.08-0.11-0.16-0.18-0.23c-2.26-2.26-4.52-4.52-6.78-6.78
						c-0.75-0.75-1.52-1.48-2.29-2.22c0.17-0.26,0.3-0.55,0.51-0.77c7.55-7.56,15.11-15.11,22.66-22.66
						c1.25-1.25,2.51-2.51,3.75-3.77C51.47,73.76,51.54,73.61,51.62,73.48z"/>
					<path class="st8" d="M33.92,110.42c0.12-0.18,0.21-0.38,0.36-0.53c20.7-20.7,41.4-41.41,62.11-62.1
						c0.13-0.13,0.27-0.23,0.41-0.35c0.49,0.46,1,0.9,1.47,1.37c2.62,2.62,5.22,5.24,7.83,7.86c-0.31,0.43-0.58,0.91-0.95,1.28
						c-3.62,3.66-7.26,7.31-10.91,10.95c-1.46,1.46-2.95,2.9-4.42,4.36c-0.13,0.12-0.23,0.27-0.34,0.41
						c-0.14,0.12-0.28,0.22-0.41,0.35c-2.13,2.13-4.26,4.25-6.38,6.39c-0.86,0.86-1.69,1.74-2.54,2.61
						c-0.28,0.25-0.57,0.5-0.83,0.77c-2.91,2.9-5.82,5.8-8.72,8.7c-0.66,0.68-1.32,1.36-1.99,2.03c-2.64,2.65-5.29,5.29-7.93,7.93
						c-3.54,3.54-7.09,7.08-10.64,10.62c-2.01,2.01-4.03,4.02-6.05,6.01c-0.28,0.27-0.63,0.46-0.95,0.69
						c-0.12-0.18-0.21-0.38-0.35-0.53c-2.58-2.59-5.17-5.18-7.76-7.77C34.57,111.13,34.25,110.77,33.92,110.42z"/>
					<path class="st3" d="M80.15,83.01c0.85-0.87,1.68-1.75,2.54-2.61c2.12-2.13,4.25-4.26,6.38-6.39c0.13-0.13,0.27-0.23,0.41-0.35
						c0.3,0.23,0.63,0.42,0.89,0.68c3.01,3,6.02,5.99,9,9.02c0.48,0.48,0.96,0.66,1.59,0.57c1.88-0.27,3.72,0.02,5.57,0.31
						c1.85,0.3,3.64,0.81,5.27,1.64c1.71,0.86,3.35,1.93,4.87,3.1c2.58,1.99,4.43,4.6,5.79,7.57c1.09,2.37,1.57,4.87,1.88,7.42
						c0.2,1.63,0.01,3.24-0.21,4.86c-0.27,1.99-0.78,3.89-1.61,5.71c-0.07,0.16-0.14,0.33-0.22,0.49c-0.18,0.36-0.39,0.39-0.69,0.1
						c-3.29-3.31-6.58-6.62-9.87-9.93c-1.32-1.33-2.66-2.64-3.97-3.98c-0.31-0.32-0.46-0.27-0.75,0.03
						c-1.33,1.37-2.7,2.71-4.06,4.06c-0.08,0.08-0.2,0.13-0.3,0.2c-0.44-0.42-0.89-0.83-1.33-1.27c-2.61-2.61-5.23-5.22-7.83-7.83
						C89.06,91.96,84.61,87.48,80.15,83.01z"/>
					<path class="st6" d="M80.15,83.01c4.45,4.47,8.91,8.95,13.36,13.42c2.61,2.61,5.22,5.22,7.83,7.83
						c0.43,0.43,0.88,0.84,1.33,1.27c-0.78,0.79-1.55,1.58-2.33,2.37c-0.66,0.66-1.32,1.32-1.97,1.99
						c-0.17,0.18-0.27,0.42-0.41,0.64c-0.14,0.07-0.31,0.11-0.42,0.21c-3.22,3.23-6.44,6.46-9.64,9.71c-0.2,0.2-0.3,0.49-0.45,0.74
						c-1.48-1.34-2.59-2.96-3.59-4.66c-0.95-1.6-1.72-3.28-2.17-5.09c-0.3-1.2-0.57-2.42-0.68-3.65c-0.13-1.39-0.04-2.81-0.11-4.21
						c-0.02-0.37-0.21-0.81-0.47-1.08c-2.78-2.83-5.59-5.62-8.38-8.44c-0.5-0.51-0.96-1.06-1.45-1.59c2.91-2.9,5.81-5.8,8.72-8.7
						C79.58,83.51,79.87,83.26,80.15,83.01z"/>
					<path class="st6" d="M54.1,26.36c-0.29,0.13-0.65,0.19-0.87,0.4c-3.17,3.14-6.32,6.3-9.48,9.45c-0.18,0.18-0.4,0.3-0.61,0.44
						c-1.85-1.87-3.7-3.74-5.56-5.6c-2.67-2.68-5.36-5.36-8.04-8.03c-0.3-0.3-0.62-0.59-1-0.94c0.25-0.12,0.42-0.2,0.59-0.28
						c2.33-1.04,4.73-1.76,7.32-1.94c3.78-0.26,7.41,0.15,10.89,1.68C49.94,22.67,52.19,24.29,54.1,26.36z"/>
					<path class="st9" d="M118.96,24.92c1.04,1.04,2.15,2.03,3.12,3.13c1.3,1.48,1.94,3.25,2.16,5.23c0.24,2.19-0.17,4.22-1.2,6.1
						c-0.55,1-1.31,1.91-2.1,2.73c-1.66,1.74-3.41,3.4-5.13,5.1c-0.19-0.13-0.4-0.24-0.56-0.4c-1.87-1.86-3.74-3.73-5.61-5.61
						c-1.08-1.08-2.15-2.17-3.22-3.25c-0.07-0.1-0.13-0.2-0.2-0.3c0.07-0.09,0.12-0.2,0.2-0.26c0.33-0.23,0.7-0.41,0.99-0.68
						c0.37-0.33,0.66-0.74,1.01-1.09c3.25-3.25,6.5-6.5,9.75-9.76C118.46,25.58,118.7,25.24,118.96,24.92z"/>
					<path class="st3" d="M118.96,24.92c-0.26,0.32-0.5,0.67-0.79,0.96c-3.24,3.26-6.5,6.5-9.75,9.76
						c-0.35,0.35-0.64,0.76-1.01,1.09c-0.29,0.27-0.67,0.44-0.99,0.68c-0.09,0.06-0.14,0.17-0.2,0.26c-0.27-0.23-0.55-0.45-0.8-0.7
						c-2.85-2.81-5.69-5.62-8.53-8.44c0.06-0.14,0.08-0.31,0.18-0.41c2.18-2.13,4.32-4.3,6.58-6.34c1.27-1.15,2.87-1.69,4.61-1.89
						c2.67-0.31,5.15,0.14,7.28,1.74C116.8,22.55,117.83,23.8,118.96,24.92z"/>
					<path class="st10" d="M96.88,28.52c2.84,2.81,5.69,5.63,8.53,8.44c0.25,0.25,0.53,0.47,0.8,0.7c0.07,0.1,0.13,0.2,0.2,0.3
						c-0.21,0.14-0.45,0.25-0.62,0.42c-2.37,2.36-4.73,4.72-7.1,7.08c-0.63,0.63-1.28,1.25-1.92,1.87
						c-0.85-0.87-1.69-1.75-2.55-2.61c-1.78-1.79-3.57-3.57-5.36-5.36c-0.45-0.45-0.88-0.91-1.32-1.36c0.13-0.27,0.2-0.6,0.4-0.81
						c2.61-2.64,5.23-5.26,7.86-7.87C96.14,29.01,96.53,28.78,96.88,28.52z"/>
					<path class="st11" d="M96.78,47.33c0.64-0.62,1.29-1.24,1.92-1.87c2.37-2.36,4.73-4.73,7.1-7.08c0.17-0.17,0.41-0.28,0.62-0.42
						c1.07,1.08,2.15,2.17,3.22,3.25c1.87,1.87,3.73,3.74,5.61,5.61c0.16,0.16,0.37,0.27,0.56,0.4c-0.5,0.51-0.98,1.02-1.49,1.52
						c-0.87,0.86-1.76,1.71-2.63,2.58c-0.87,0.87-1.73,1.76-2.6,2.63c-0.82,0.83-1.64,1.67-2.48,2.49
						c-0.13,0.13-0.35,0.16-0.53,0.24c-2.61-2.62-5.22-5.25-7.83-7.86c-0.47-0.47-0.98-0.92-1.47-1.37
						C96.79,47.4,96.78,47.37,96.78,47.33z"/>
				</g>
				<path class="st12" d="M33.68,110.3c-0.16,0.18-0.31,0.36-0.47,0.53c-2.67,2.68-5.34,5.35-8.03,8.02
					c-0.45,0.45-0.96,0.84-1.45,1.26c-0.94-0.92-1.88-1.85-2.84-2.77c-0.15-0.15-0.35-0.24-0.53-0.36
					c-0.02-0.13-0.09-0.28-0.06-0.39c0.56-2.19,1.15-4.38,1.71-6.57c0.7-2.75,1.39-5.51,2.09-8.26c0.06-0.24,0.21-0.46,0.32-0.68
					c0.76,0.74,1.53,1.47,2.29,2.22c2.26,2.25,4.52,4.52,6.78,6.78C33.57,110.13,33.62,110.22,33.68,110.3z"/>
				<path class="st13" d="M26.77,123.22c-0.73-0.73-1.46-1.46-2.18-2.18c-0.15-0.15-0.31-0.3-0.46-0.45
					c-0.05-0.04-0.09-0.09-0.14-0.13c-0.04-0.03-0.08-0.07-0.12-0.1c-0.04,0-0.08,0-0.12,0c-0.14,0.16-0.27,0.34-0.42,0.49
					c-1.44,1.46-2.88,2.92-4.33,4.38c-0.21,0.22-0.44,0.42-0.66,0.63c0.21,0,0.44,0.05,0.64,0c2.17-0.55,4.33-1.1,6.49-1.67
					c0.55-0.14,1.1-0.31,1.65-0.47C27,123.54,26.89,123.38,26.77,123.22z"/>
			</g>
		</g>
	</g>
</g>
</svg>
