<?xml version="1.0" encoding="utf-8"?>
<!-- Generator: Adobe Illustrator 27.7.0, SVG Export Plug-In . SVG Version: 6.00 Build 0)  -->
<svg version="1.1" id="Layer_1" xmlns="http://www.w3.org/2000/svg" xmlns:xlink="http://www.w3.org/1999/xlink" x="0px" y="0px"
	 viewBox="0 0 150 150" style="enable-background:new 0 0 150 150;" xml:space="preserve">
<style type="text/css">
	.st0{fill:#00A651;stroke:#000000;stroke-miterlimit:10;}
	.st1{fill:#00A651;stroke:#FFFFFF;stroke-width:4;stroke-miterlimit:10;}
	.st2{fill:#FFFFFF;}
	.st3{fill:#557670;}
	.st4{fill:#0B7483;}
	.st5{fill:#B7B1A1;}
	.st6{fill:#3E5A55;}
	.st7{fill:#74BF5F;}
	.st8{fill:#629B4F;}
	.st9{fill:#425F5A;}
	.st10{fill:#E4F4F7;}
	.st11{fill:#BAE3EA;}
	.st12{fill:#EFEBE0;}
	.st13{fill:#0E1414;}
	.st14{fill:#2B403D;}
	.st15{fill:#FCB340;}
	.st16{fill:#9CCF87;}
	.st17{fill:#EE6F68;}
	.st18{fill:#75AA60;}
	.st19{fill:#13A7DD;}
	.st20{fill:#8DD7F7;}
	.st21{fill:#E0DFDA;}
	.st22{opacity:0.5;fill:#FDF7ED;}
	.st23{fill:none;}
	.st24{fill:#00A651;}
	.st25{fill:#CEC9BC;}
</style>
<g>
	<path class="st6" d="M101.32,73.34c0.25,0.25,0.58,0.44,0.87,0.66c2.08-2,4.3-3.88,6.19-6.04c2.64-3,3.74-6.69,3.91-10.64
		c0.14-3.29-0.85-6.33-2.4-9.19c-0.31-0.58-0.53-1.02,0.07-1.6c3.11-3,6.15-6.06,9.27-9.05c1.77-1.69,1.79-1.62,0.09-3.36
		c-0.42-0.42-0.84-0.84-1.27-1.25l-28.6,28.6C93.4,65.43,97.36,69.39,101.32,73.34z"/>
	<path class="st7" d="M60.39,90.54l-28.47,28.47c1.83,1.62,3.64,3.25,5.53,4.79c4.94,4.03,10.52,6.99,16.45,9.25
		c6.26,2.39,12.83,3.59,19.51,3.81c3.36,0.11,6.76-0.14,10.1-0.6c5.92-0.8,11.6-2.5,17.07-4.94c8.83-3.93,16.27-9.7,22.24-17.18
		c4.69-5.86,8.21-12.42,10.61-19.66c0.83-2.52,1.86-4.12,2.19-10.52c0.17-3.2-1.31-4.48-4.46-4.33c-1.41,0.07-2.32,0.69-2.65,2.08
		c-0.28,1.21-0.43,3.41-0.55,4.65c-0.1,1.03-0.55,2.17-1.47,5.12c-1.41,4.49-3.28,8.71-5.77,12.73c-2.23,3.61-4.92,6.82-7.9,9.74
		c-3.76,3.68-7.92,6.95-12.74,9.19c-3.54,1.64-7.11,3.36-10.85,4.38c-5.55,1.52-11.28,2.25-17.08,1.57
		c-3.49-0.41-7.02-0.7-10.46-1.38c-5.45-1.08-10.37-3.56-15.05-6.49c-2.3-1.44-4.46-3.1-7.04-4.91c1.87-1.74,3.61-3.16,5.09-4.81
		c0.97-1.08,1.66-1.14,2.92-0.49c4.96,2.57,10.02,2.57,15.19,0.41c3.97-1.65,6.61-4.82,9.52-7.71c0.19-0.18,0.24-0.51,0.35-0.77
		c-0.43-0.53-0.82-1.1-1.3-1.58C67.72,97.76,64.05,94.15,60.39,90.54z"/>
	<path class="st8" d="M71.37,101.37c0.48,0.48,0.87,1.05,1.3,1.58c0.85,0.67,1.71,1.31,2.54,2.01c1.33,1.11,3.23,1.33,4.79,0.56
		c2.61-1.29,3.7-4.78,1.16-7.16c-2.19-2.05-4.24-4.25-6.35-6.38c-1.39-1.41-2.77-2.83-4.16-4.24c-1.25-1.23-2.51-2.46-3.76-3.7
		l-6.5,6.5C64.05,94.15,67.72,97.76,71.37,101.37z"/>
	<path class="st14" d="M89.45,61.48l-6.37,6.37c4.83,4.79,9.66,9.57,14.41,14.43c1.39,1.42,4.99,1.44,6.24,0.13
		c1.77-1.86,1.89-4.42,0.09-6.47c-0.56-0.63-1.09-1.29-1.64-1.94c-0.29-0.22-0.61-0.41-0.87-0.66
		C97.36,69.39,93.4,65.43,89.45,61.48z"/>
	<path class="st14" d="M75.53,91.52c3.07-3.07,6.16-6.13,9.19-9.24c1.23-1.26,1.21-3.08,0.12-4.13c-1.16-1.11-3.1-1.15-4.33,0.02
		c-1.58,1.51-3.07,3.12-4.64,4.65c-1.71,1.66-3.48,3.28-5.22,4.91c1.39,1.41,2.77,2.83,4.16,4.24
		C75.06,91.82,75.34,91.72,75.53,91.52z"/>
	<path class="st3" d="M75.29,15.31c-3.29-0.06-6.59,0.51-9.88,0.91c-4.89,0.6-9.61,1.93-14.14,3.86
		c-7.66,3.27-14.44,7.79-20.25,13.82c-7.29,7.57-12.24,16.36-15.09,26.48c-0.64,2.29-1.31,4.75-1.58,10.16
		c-0.02,0.49,0.22,1.04,0.51,1.44c0.92,1.26,2.82,1.81,4.3,1.31c1.32-0.44,2.44-2.21,2.54-3.7c0.21-3.14-0.03,0.06,0.55-3.02
		c0.63-3.34,1.66-6.63,2.78-9.85c2-5.76,5.34-10.8,9.29-15.38C39.56,35.28,46,30.74,53.3,27.42c5.6-2.55,11.49-3.89,17.6-4.35
		L71,22.99c0,0,0.1,0.04,0.1,0.04c5.43-0.63,10.79-0.08,16.04,1.21c3.09,0.75,6.1,1.91,9.09,3.04c4.84,1.84,9.1,4.66,13.08,7.95
		c0.73,0.6,0.64,0.96,0.05,1.53c-1.3,1.23-2.59,2.47-3.85,3.74c-1.48,1.49-1.46,1.5-3.3,0.62c-2.94-1.41-6.02-2.31-9.29-1.88
		c-4.67,0.61-8.69,2.55-11.9,6.09c-1.22,1.34-2.65,2.49-3.98,3.73c4.14,4.14,8.28,8.28,12.43,12.42l28.6-28.6
		c-7.84-7.55-16.98-12.86-27.64-15.62C85.45,15.97,80.38,15.41,75.29,15.31z"/>
	<path class="st15" d="M52.1,82.37c-1.38-1.36-2.76-2.72-4.14-4.09c-1.69,1.53-3.46,2.97-5.04,4.6c-1.91,1.97-3.53,4.24-4.17,6.93
		c-0.67,2.82-1.06,5.74-0.39,8.64c0.37,1.6,0.79,3.24,1.49,4.71c0.89,1.88,1.01,1.8-0.46,3.23c-3.07,2.98-6.11,5.99-9.18,8.96
		c-0.76,0.74-0.89,1.38-0.05,2.11c0.59,0.51,1.17,1.02,1.75,1.54l28.47-28.47C57.62,87.82,54.86,85.09,52.1,82.37z"/>
	<path class="st16" d="M52.1,82.37c-1.38-1.36-2.76-2.72-4.14-4.09c-1.69,1.53-3.46,2.97-5.04,4.6c-1.91,1.97-3.53,4.24-4.17,6.93
		c-0.67,2.82-1.06,5.74-0.39,8.64c0.37,1.6,0.79,3.24,1.49,4.71c0.89,1.88,1.01,1.8-0.46,3.23c-3.07,2.98-6.11,5.99-9.18,8.96
		c-0.76,0.74-0.89,1.38-0.05,2.11c0.59,0.51,1.17,1.02,1.75,1.54l28.47-28.47C57.62,87.82,54.86,85.09,52.1,82.37z"/>
	<path class="st17" d="M59.09,76.35c-1.8-1.76-3.56-3.57-5.43-5.26c-0.92-0.83-1.96-1.64-3.09-2.12c-2.13-0.91-5.17,0.71-5.39,2.77
		c-0.22,2.06-0.1,4.07,1.75,5.51c0.38,0.3,0.69,0.69,1.03,1.04c1.38,1.36,2.75,2.73,4.14,4.09c2.76,2.72,5.52,5.45,8.29,8.17
		l6.5-6.5c-1.29-1.27-2.59-2.54-3.88-3.81C61.7,78.93,60.39,77.64,59.09,76.35z"/>
	<path class="st18" d="M59.09,76.35c-1.8-1.76-3.56-3.57-5.43-5.26c-0.92-0.83-1.96-1.64-3.09-2.12c-2.13-0.91-5.17,0.71-5.39,2.77
		c-0.22,2.06-0.1,4.07,1.75,5.51c0.38,0.3,0.69,0.69,1.03,1.04c1.38,1.36,2.75,2.73,4.14,4.09c2.76,2.72,5.52,5.45,8.29,8.17
		l6.5-6.5c-1.29-1.27-2.59-2.54-3.88-3.81C61.7,78.93,60.39,77.64,59.09,76.35z"/>
	<path class="st19" d="M77.02,49.06c-0.64-0.56-1.3-1.1-1.91-1.69c-2.19-2.15-6.16-0.7-6.97,1.33c-0.32,0.81-0.07,1.84-0.21,2.75
		c-0.15,1.02,0.28,1.69,0.96,2.36c3.66,3.6,7.31,7.22,10.95,10.84c1.07,1.07,2.15,2.14,3.23,3.2l6.37-6.37
		C85.31,57.34,81.16,53.2,77.02,49.06z"/>
	<path class="st9" d="M77.02,49.06c-0.64-0.56-1.3-1.1-1.91-1.69c-2.19-2.15-6.16-0.7-6.97,1.33c-0.32,0.81-0.07,1.84-0.21,2.75
		c-0.15,1.02,0.28,1.69,0.96,2.36c3.66,3.6,7.31,7.22,10.95,10.84c1.07,1.07,2.15,2.14,3.23,3.2l6.37-6.37
		C85.31,57.34,81.16,53.2,77.02,49.06z"/>
	<path class="st20" d="M73.09,70.27c0.8-0.82,1.03-1.97,0.41-3.17c-0.81-1.56-3.51-2.12-5.23-0.31c-2.78,2.92-5.72,5.69-8.57,8.55
		c-0.27,0.27-0.41,0.68-0.61,1.02c1.31,1.29,2.61,2.58,3.92,3.87C66.38,76.91,69.79,73.65,73.09,70.27z"/>
	<path class="st9" d="M73.09,70.27c0.8-0.82,1.03-1.97,0.41-3.17c-0.81-1.56-3.51-2.12-5.23-0.31c-2.78,2.92-5.72,5.69-8.57,8.55
		c-0.27,0.27-0.41,0.68-0.61,1.02c1.31,1.29,2.61,2.58,3.92,3.87C66.38,76.91,69.79,73.65,73.09,70.27z"/>
	<path class="st21" d="M70.91,23.06c0.07,0.01,0.13,0,0.19-0.03c0,0-0.1-0.04-0.1-0.04L70.91,23.06z"/>
	<path class="st22" d="M70.91,23.06c0.07,0.01,0.13,0,0.19-0.03c0,0-0.1-0.04-0.1-0.04L70.91,23.06z"/>
</g>
</svg>
