<?xml version="1.0" encoding="utf-8"?>
<!-- Generator: Adobe Illustrator 27.7.0, SVG Export Plug-In . SVG Version: 6.00 Build 0)  -->
<svg version="1.1" id="Layer_1" xmlns="http://www.w3.org/2000/svg" xmlns:xlink="http://www.w3.org/1999/xlink" x="0px" y="0px"
	 viewBox="0 0 150 150" style="enable-background:new 0 0 150 150;" xml:space="preserve">
<style type="text/css">
	.st0{fill:#00A651;stroke:#000000;stroke-miterlimit:10;}
	.st1{fill:#00A651;stroke:#FFFFFF;stroke-width:4;stroke-miterlimit:10;}
	.st2{fill:#FFFFFF;}
	.st3{fill:#557670;}
	.st4{fill:#0B7483;}
	.st5{fill:#B7B1A1;}
	.st6{fill:#3E5A55;}
	.st7{fill:#74BF5F;}
	.st8{fill:#629B4F;}
	.st9{fill:#425F5A;}
	.st10{fill:#E4F4F7;}
	.st11{fill:#BAE3EA;}
	.st12{fill:#EFEBE0;}
	.st13{fill:#0E1414;}
	.st14{fill:#2B403D;}
	.st15{fill:#FCB340;}
	.st16{fill:#9CCF87;}
	.st17{fill:#EE6F68;}
	.st18{fill:#75AA60;}
	.st19{fill:#13A7DD;}
	.st20{fill:#8DD7F7;}
	.st21{fill:#E0DFDA;}
	.st22{opacity:0.5;fill:#FDF7ED;}
	.st23{fill:none;}
	.st24{fill:#00A651;}
	.st25{fill:#CEC9BC;}
</style>
<g>
	<g>
		<path class="st23" d="M120.12,42.88c-0.14-0.12-0.26-0.25-0.41-0.36c-4.98-4.09-10.67-5.73-17.68-4.94
			c-5.24,0.28-11.38,4.57-14.07,8.2c-3.59,4.83-5.34,10.18-4.74,16.28c0.61,6.25,4.08,11.85,9.05,15.51"/>
		<path class="st7" d="M83.22,62.06c-0.6-6.1,1.15-11.44,4.74-16.28c2.69-3.63,8.84-7.92,14.07-8.2c7.01-0.8,12.71,0.85,17.68,4.94
			c0.14,0.12,0.27,0.24,0.41,0.36l11.45-14.26c-1.36-1.16-2.79-2.25-4.34-3.18c-1.13-0.68-2.29-0.49-3.12,0.52
			c-0.84,1.03-1.77,1.9-2.96,2.54c-1.89,1.02-3.87,1.34-5.93,0.94c-3.68-0.72-6.89-4.3-7.28-8.48c-0.1-1.1-0.94-1.85-2.02-1.82
			c-1.08,0.03-2.17,0.02-3.24,0.11c-1.55,0.13-3.1,0.34-4.65,0.53c-0.56,0.07-1.13,0.14-1.66,0.33c-1.18,0.41-1.71,1.62-1.58,2.69
			c0.14,1.19,0.23,2.36-0.11,3.52c-0.82,2.8-2.5,4.87-5.23,6.01c-1.2,0.5-2.49,0.69-3.77,0.6c-2.07-0.15-3.89-0.97-5.51-2.26
			c-1.03-0.82-2.29-0.75-3.18,0.11c-2.2,2.12-4.12,4.48-5.71,7.1c-0.4,0.67-0.55,1.43-0.1,2.11c0.44,0.67,0.95,1.31,1.53,1.86
			c2.8,2.66,3.5,6.49,1.94,9.95c-1.22,2.69-3.31,4.43-6.24,5.06c-0.51,0.11-1.02,0.21-1.54,0.29c-0.92,0.16-1.71,0.79-1.84,1.62
			c-0.09,0.62-0.11,1.27-0.06,1.9c0.19,2.51,0.32,5.03,0.92,7.5c0.29,1.18,0.66,1.78,1.82,2.04c0.43,0.1,0.9,0.07,1.35,0.06
			c0.53-0.02,1.06-0.18,1.57-0.11c1.84,0.26,3.54,0.91,5.01,2.07c2.31,1.82,3.27,4.29,3.22,7.13c-0.04,2.02-0.87,3.82-2.19,5.39
			c-1.11,1.32-1.04,2.33,0.18,3.55c1.26,1.26,2.6,2.41,4,3.49l11.42-14.23C87.3,73.91,83.83,68.3,83.22,62.06z"/>
		<path class="st24" d="M86.96,93.14c1.51-1.9,3.39-3.28,5.95-3.38c1.62-0.27,3.19-0.12,4.65,0.64c3.11,1.63,4.93,4.19,5.33,7.7
			c0.1,0.86,0.6,1.37,1.28,1.78c0.82,0.5,1.75,0.3,2.58,0.22c2.55-0.24,5.12-0.36,7.62-1.03c1.21-0.32,1.77-1.03,1.63-2.25
			c-0.19-1.77,0-3.5,0.68-5.14c1.07-2.57,3.04-4.28,5.62-5.08c1.71-0.53,3.56-0.48,5.34,0.15c1.21,0.43,2.25,1.11,3.24,1.9
			c0.94,0.75,2.25,0.62,3-0.11c2.19-2.13,4.13-4.47,5.76-7.07c0.19-0.31,0.32-0.72,0.32-1.08c0-1.09-0.47-1.93-1.31-2.66
			c-2.83-2.46-3.98-6.1-2.7-9.48c0.73-1.94,1.93-3.5,3.67-4.65c1.32-0.87,2.78-1.32,4.34-1.51c1.12-0.13,1.87-0.74,1.91-1.6
			c0.06-1.11,0.08-2.24,0.01-3.35c-0.1-1.46-0.28-2.91-0.47-4.36c-0.11-0.79-0.3-1.57-0.5-2.34c-0.22-0.87-1.14-1.43-2.06-1.35
			c-0.74,0.06-1.5,0.21-2.22,0.1c-3.03-0.47-5.59-1.74-7.3-4.44c-0.92-1.46-1.35-3.06-1.27-4.74c0.1-2.11,0.94-3.99,2.3-5.61
			c0.89-1.06,0.85-2.41-0.17-3.41c-0.84-0.82-1.7-1.61-2.59-2.37l-11.45,14.26c4.01,3.45,6.46,7.84,7.32,13.06
			c1.08,6.6-0.5,12.57-4.72,17.79c-3.76,4.64-8.68,7.34-14.56,8.09c-5.85,0.74-11.47-0.98-15.89-4.24L80.85,91.8
			c0.81,0.63,1.64,1.25,2.48,1.84C84.55,94.5,86.11,94.22,86.96,93.14z"/>
		<path class="st8" d="M86.96,93.14c1.51-1.9,3.39-3.28,5.95-3.38c1.62-0.27,3.19-0.12,4.65,0.64c3.11,1.63,4.93,4.19,5.33,7.7
			c0.1,0.86,0.6,1.37,1.28,1.78c0.82,0.5,1.75,0.3,2.58,0.22c2.55-0.24,5.12-0.36,7.62-1.03c1.21-0.32,1.77-1.03,1.63-2.25
			c-0.19-1.77,0-3.5,0.68-5.14c1.07-2.57,3.04-4.28,5.62-5.08c1.71-0.53,3.56-0.48,5.34,0.15c1.21,0.43,2.25,1.11,3.24,1.9
			c0.94,0.75,2.25,0.62,3-0.11c2.19-2.13,4.13-4.47,5.76-7.07c0.19-0.31,0.32-0.72,0.32-1.08c0-1.09-0.47-1.93-1.31-2.66
			c-2.83-2.46-3.98-6.1-2.7-9.48c0.73-1.94,1.93-3.5,3.67-4.65c1.32-0.87,2.78-1.32,4.34-1.51c1.12-0.13,1.87-0.74,1.91-1.6
			c0.06-1.11,0.08-2.24,0.01-3.35c-0.1-1.46-0.28-2.91-0.47-4.36c-0.11-0.79-0.3-1.57-0.5-2.34c-0.22-0.87-1.14-1.43-2.06-1.35
			c-0.74,0.06-1.5,0.21-2.22,0.1c-3.03-0.47-5.59-1.74-7.3-4.44c-0.92-1.46-1.35-3.06-1.27-4.74c0.1-2.11,0.94-3.99,2.3-5.61
			c0.89-1.06,0.85-2.41-0.17-3.41c-0.84-0.82-1.7-1.61-2.59-2.37l-11.45,14.26c4.01,3.45,6.46,7.84,7.32,13.06
			c1.08,6.6-0.5,12.57-4.72,17.79c-3.76,4.64-8.68,7.34-14.56,8.09c-5.85,0.74-11.47-0.98-15.89-4.24L80.85,91.8
			c0.81,0.63,1.64,1.25,2.48,1.84C84.55,94.5,86.11,94.22,86.96,93.14z"/>
	</g>
	<g>
		<path class="st23" d="M43.23,74.74c2.02-2.57,3.04-5.85,2.8-9.05c-0.54-7.16-7.26-13.05-15.07-11.76
			c-3.19,0.53-5.84,2.11-7.85,4.63c-0.01,0.01-0.01,0.01-0.02,0.02"/>
		<path class="st9" d="M23.11,58.55c2.01-2.52,4.67-4.1,7.85-4.63c7.81-1.29,14.52,4.6,15.07,11.76c0.24,3.21-0.78,6.48-2.8,9.05
			l7.8,6.26c0.99-1.64,2.51-2.67,4.57-2.9c0.97-0.11,1.97,0.1,2.95,0.2c0.67,0.07,1.59-0.14,1.91-0.97c0.8-2.03,1.29-4.12,1.58-6.26
			c0.16-1.17-0.26-1.7-1.42-2.06c-0.08-0.02-0.16-0.04-0.23-0.07c-3.11-1.01-4.96-3.79-4.56-6.87c0.28-2.2,1.59-3.84,3.49-5
			c0.69-0.43,0.98-1.31,0.67-2.05c-0.13-0.33-0.28-0.65-0.43-0.96c-0.83-1.71-1.73-3.38-2.94-4.86c-0.59-0.72-1.39-1.01-2.35-0.38
			c-1.21,0.8-2.57,1.22-4.05,1.02c-1.68-0.23-3.14-0.89-4.24-2.26c-1.43-1.8-1.79-3.8-1.3-6.01c0.28-1.26,0-1.74-1.19-2.28
			c-0.22-0.1-0.45-0.2-0.68-0.26c-1.61-0.42-3.22-0.82-4.82-1.24c-0.71-0.18-1.43-0.25-1.94,0.36c-0.37,0.45-0.64,1.02-0.84,1.57
			c-1.2,3.36-4.44,4.93-7.72,4.1c-1.74-0.44-3.04-1.51-3.91-3.07c-0.42-0.75-1.44-1.26-2.21-0.92c-1.86,0.83-3.61,1.83-5.28,2.98
			c-1.24,0.86-1.39,1.55-0.74,2.87c0.37,0.76,0.62,1.57,0.93,2.36c-0.05,0.02-0.11,0.04-0.16,0.06c0.28,1.67-0.15,3.09-0.83,4.2
			l7.8,6.26C23.1,58.56,23.1,58.56,23.11,58.55z"/>
		<path class="st24" d="M14.13,53.74c-1.41,1.33-3.13,1.59-4.93,1.66c-0.21,0.01-0.43-0.12-0.64-0.17
			c-0.36-0.08-0.72-0.21-1.09-0.23c-0.98-0.04-1.43,0.3-1.75,1.24c-0.23,0.67-0.49,1.33-0.66,2.02c-0.34,1.38-0.66,2.78-0.93,4.18
			c-0.16,0.8,0.42,1.7,1.03,1.87c0.58,0.16,1.18,0.3,1.7,0.58c2.29,1.21,3.66,3.1,3.6,5.72c-0.04,2.17-1.09,3.93-2.86,5.23
			c-0.36,0.26-0.74,0.51-1.05,0.82c-0.46,0.47-0.6,1.03-0.29,1.67c0.31,0.63,0.53,1.3,0.89,1.9c0.84,1.4,1.73,2.78,2.63,4.14
			c0.14,0.21,0.46,0.45,0.68,0.43c0.59-0.05,1.24-0.11,1.74-0.39c1.52-0.87,3.04-1.13,4.76-0.67c3.51,0.93,5.65,4.64,4.56,8.07
			c-0.31,0.98,0.02,1.77,0.96,2.17c2.01,0.87,4.13,1.36,6.29,1.68c1,0.15,1.75-0.38,2.1-1.34c0.17-0.46,0.31-0.92,0.53-1.36
			c1.22-2.44,3.25-3.72,5.93-3.67c1.7,0.03,3.25,0.78,4.4,2.13c0.42,0.49,0.77,1.04,1.17,1.55c0.46,0.61,1.06,0.84,1.64,0.62
			c2.18-0.82,4.21-1.93,6.04-3.36c0.75-0.58,0.87-1.59,0.4-2.42c-1.02-1.8-1.32-3.7-0.55-5.65c0.17-0.43,0.38-0.82,0.6-1.19
			l-7.8-6.26c-2,2.54-4.98,4.39-8.7,4.78c-7.41,0.88-12.86-4.56-14-9.92c-0.88-4.11-0.02-7.78,2.56-11.03l-7.8-6.26
			C14.95,52.87,14.55,53.35,14.13,53.74z"/>
		<path class="st14" d="M14.13,53.74c-1.41,1.33-3.13,1.59-4.93,1.66c-0.21,0.01-0.43-0.12-0.64-0.17
			c-0.36-0.08-0.72-0.21-1.09-0.23c-0.98-0.04-1.43,0.3-1.75,1.24c-0.23,0.67-0.49,1.33-0.66,2.02c-0.34,1.38-0.66,2.78-0.93,4.18
			c-0.16,0.8,0.42,1.7,1.03,1.87c0.58,0.16,1.18,0.3,1.7,0.58c2.29,1.21,3.66,3.1,3.6,5.72c-0.04,2.17-1.09,3.93-2.86,5.23
			c-0.36,0.26-0.74,0.51-1.05,0.82c-0.46,0.47-0.6,1.03-0.29,1.67c0.31,0.63,0.53,1.3,0.89,1.9c0.84,1.4,1.73,2.78,2.63,4.14
			c0.14,0.21,0.46,0.45,0.68,0.43c0.59-0.05,1.24-0.11,1.74-0.39c1.52-0.87,3.04-1.13,4.76-0.67c3.51,0.93,5.65,4.64,4.56,8.07
			c-0.31,0.98,0.02,1.77,0.96,2.17c2.01,0.87,4.13,1.36,6.29,1.68c1,0.15,1.75-0.38,2.1-1.34c0.17-0.46,0.31-0.92,0.53-1.36
			c1.22-2.44,3.25-3.72,5.93-3.67c1.7,0.03,3.25,0.78,4.4,2.13c0.42,0.49,0.77,1.04,1.17,1.55c0.46,0.61,1.06,0.84,1.64,0.62
			c2.18-0.82,4.21-1.93,6.04-3.36c0.75-0.58,0.87-1.59,0.4-2.42c-1.02-1.8-1.32-3.7-0.55-5.65c0.17-0.43,0.38-0.82,0.6-1.19
			l-7.8-6.26c-2,2.54-4.98,4.39-8.7,4.78c-7.41,0.88-12.86-4.56-14-9.92c-0.88-4.11-0.02-7.78,2.56-11.03l-7.8-6.26
			C14.95,52.87,14.55,53.35,14.13,53.74z"/>
	</g>
	<g>
		<path class="st7" d="M19.82,117.88c-0.53-5.05,3.35-9.91,7.87-10.63c3.23-0.52,5.95,0.38,7.93,1.96l4.72-5.88
			c-1.71-1.09-2.86-3.21-2.13-5.35c0.38-1.11,0.15-1.49-0.99-1.87c-1.27-0.42-2.57-0.79-3.88-1.01c-1.53-0.26-1.7-0.07-2.22,1.42
			c-0.9,2.55-3.86,4.05-6.45,2.74c-1.04-0.53-1.8-1.3-2.4-2.26c-0.31-0.5-0.78-0.66-1.28-0.48c-1.67,0.6-3.22,1.46-4.6,2.59
			c-0.63,0.51-0.67,1.03-0.32,1.76c0.33,0.67,0.58,1.39,0.88,2.14c-0.14,0.75-0.17,1.51-0.44,2.17c-1.02,2.58-3.41,3.38-5.92,2.94
			c-0.99-0.17-1.34-0.08-1.66,0.85c-0.39,1.13-0.78,2.28-1.01,3.45c-0.13,0.69-0.64,1.51,0.14,2.16c0.27,0.22,0.57,0.45,0.89,0.55
			c2.82,0.86,4.07,3.63,3.31,6.1c-0.36,1.17-1.18,2.02-2.17,2.7c-0.88,0.6-1.1,1.15-0.6,2.11c0.64,1.21,1.34,2.39,2.08,3.54
			c0.77,1.19,1.1,1.03,2.21,0.51c1.18-0.56,2.33-0.69,3.6-0.43c0.48,0.1,0.94,0.29,1.36,0.55l4.76-5.93
			C21.47,122.65,20.07,120.29,19.82,117.88z"/>
		<path class="st24" d="M20.86,135.44c-0.35,1.17-0.05,1.68,0.95,2c1.2,0.38,2.39,0.8,3.62,1.06c1.54,0.33,1.99,0.01,2.57-1.49
			c0.01-0.02,0.01-0.04,0.02-0.06c1.16-2.85,4.34-4.06,7-2.25c0.68,0.47,1.24,1.15,1.78,1.8c0.34,0.41,0.66,0.7,1.21,0.53
			c0.38-0.11,0.78-0.19,1.12-0.39c1.25-0.73,2.48-1.49,3.69-2.28c0.46-0.3,0.61-0.85,0.2-1.59c-0.21-0.37-0.39-0.77-0.54-1.17
			c-0.73-1.96,0.21-4.32,1.8-5.4c1.26-0.86,2.61-1.07,4.08-0.66c0.92,0.25,1.3,0.07,1.75-0.79c0.1-0.2,0.21-0.4,0.27-0.61
			c0.29-1.21,0.63-2.41,0.83-3.63c0.23-1.38-0.08-1.71-1.41-2.21c-1.58-0.6-2.74-1.73-3.09-3.39c-0.44-2.1,0.3-3.85,2.12-5.07
			c1.11-0.75,1.31-1.05,0.62-2.54c-0.55-1.2-1.3-2.31-2.03-3.42c-0.57-0.87-1.09-0.95-2.01-0.49c-0.9,0.45-1.83,0.79-2.87,0.71
			c-0.76-0.05-1.51-0.33-2.18-0.76l-4.72,5.88c2.16,1.71,3.44,4.23,3.54,6.63c0.8,4.79-3.24,9.86-8.17,10.58
			c-2.82,0.41-5.47-0.51-7.48-2.13l-4.76,5.93C20.41,131.24,21.48,133.37,20.86,135.44z"/>
		<path class="st8" d="M20.86,135.44c-0.35,1.17-0.05,1.68,0.95,2c1.2,0.38,2.39,0.8,3.62,1.06c1.54,0.33,1.99,0.01,2.57-1.49
			c0.01-0.02,0.01-0.04,0.02-0.06c1.16-2.85,4.34-4.06,7-2.25c0.68,0.47,1.24,1.15,1.78,1.8c0.34,0.41,0.66,0.7,1.21,0.53
			c0.38-0.11,0.78-0.19,1.12-0.39c1.25-0.73,2.48-1.49,3.69-2.28c0.46-0.3,0.61-0.85,0.2-1.59c-0.21-0.37-0.39-0.77-0.54-1.17
			c-0.73-1.96,0.21-4.32,1.8-5.4c1.26-0.86,2.61-1.07,4.08-0.66c0.92,0.25,1.3,0.07,1.75-0.79c0.1-0.2,0.21-0.4,0.27-0.61
			c0.29-1.21,0.63-2.41,0.83-3.63c0.23-1.38-0.08-1.71-1.41-2.21c-1.58-0.6-2.74-1.73-3.09-3.39c-0.44-2.1,0.3-3.85,2.12-5.07
			c1.11-0.75,1.31-1.05,0.62-2.54c-0.55-1.2-1.3-2.31-2.03-3.42c-0.57-0.87-1.09-0.95-2.01-0.49c-0.9,0.45-1.83,0.79-2.87,0.71
			c-0.76-0.05-1.51-0.33-2.18-0.76l-4.72,5.88c2.16,1.71,3.44,4.23,3.54,6.63c0.8,4.79-3.24,9.86-8.17,10.58
			c-2.82,0.41-5.47-0.51-7.48-2.13l-4.76,5.93C20.41,131.24,21.48,133.37,20.86,135.44z"/>
	</g>
	<g>
		<path class="st9" d="M64.51,91.7c2.86-0.29,6.04,2.2,6.52,4.76c0.41,2.15-0.19,3.92-1.22,5.2l3.79,3.05
			c0.62-0.97,1.71-1.76,3.02-1.49c0.19,0.04,0.38,0.09,0.58,0.12c0.49,0.06,0.86-0.03,0.97-0.62c0.14-0.72,0.35-1.44,0.52-2.15
			c0.31-1.22,0.27-1.34-0.89-1.78c-1.43-0.54-2.22-2.23-1.83-3.51c0.25-0.84,0.77-1.49,1.49-1.94c0.48-0.3,0.57-0.75,0.38-1.13
			c-0.45-0.91-1.01-1.78-1.54-2.65c-0.25-0.42-0.63-0.44-1.05-0.28c-0.18,0.07-0.36,0.16-0.55,0.22c-0.87,0.3-1.76,0.42-2.59-0.02
			c-1.19-0.63-1.8-2.02-1.54-3.35c0.16-0.82,0.04-1.12-0.74-1.39c-0.86-0.3-1.74-0.53-2.62-0.72c-0.43-0.1-0.78,0.12-0.97,0.55
			c-0.19,0.42-0.38,0.86-0.62,1.25c-0.55,0.86-1.41,1.32-2.4,1.27c-1.18-0.05-2.15-0.64-2.75-1.7c-0.18-0.32-0.42-0.47-0.74-0.33
			c-0.72,0.32-1.46,0.63-2.13,1.03c-1.3,0.79-1.24,0.8-0.79,2.28c0.3,0.99,0.24,1.94-0.22,2.69l3.78,3.04
			C61.42,92.83,62.91,91.86,64.51,91.7z"/>
		<path class="st24" d="M55.2,92.16c-0.61,0.24-1.38,0.14-2.07,0.13c-0.49-0.01-0.92,0.03-1.08,0.56c-0.28,0.88-0.56,1.76-0.76,2.66
			c-0.16,0.72,0.05,0.93,0.77,1.24c1.24,0.53,2.18,1.31,2.23,2.8c0.04,1.24-0.56,2.07-1.57,2.73c-0.27,0.18-0.53,0.82-0.42,1.08
			c0.43,0.95,0.96,1.86,1.55,2.71c0.39,0.57,0.81,0.6,1.4,0.2c1.29-0.86,2.97-0.28,3.77,0.72c0.7,0.87,0.65,1.88,0.53,2.86
			c-0.07,0.59,0.1,0.88,0.61,1.03c0.85,0.24,1.69,0.51,2.55,0.67c0.96,0.18,0.96,0.13,1.38-0.77c0.12-0.26,0.25-0.51,0.41-0.75
			c1.33-2.11,3.66-1.74,4.87-0.14c0.69,0.91,0.7,0.96,1.7,0.5c0.77-0.35,1.5-0.8,2.21-1.26c0.47-0.3,0.67-0.7,0.31-1.28
			c-0.24-0.39-0.31-0.89-0.46-1.34c0.03-0.01,0.05-0.02,0.08-0.02c-0.03-0.24-0.12-0.5-0.07-0.72c0.09-0.35,0.25-0.71,0.47-1.05
			l-3.79-3.05c-1.02,1.27-2.45,2.04-3.74,2.21c-4.06,0.52-6.99-2.65-7-5.38c-0.41-1.36,0.18-3.04,1.3-4.4l-3.78-3.04
			C56.31,91.52,55.85,91.91,55.2,92.16z"/>
		<path class="st14" d="M55.2,92.16c-0.61,0.24-1.38,0.14-2.07,0.13c-0.49-0.01-0.92,0.03-1.08,0.56c-0.28,0.88-0.56,1.76-0.76,2.66
			c-0.16,0.72,0.05,0.93,0.77,1.24c1.24,0.53,2.18,1.31,2.23,2.8c0.04,1.24-0.56,2.07-1.57,2.73c-0.27,0.18-0.53,0.82-0.42,1.08
			c0.43,0.95,0.96,1.86,1.55,2.71c0.39,0.57,0.81,0.6,1.4,0.2c1.29-0.86,2.97-0.28,3.77,0.72c0.7,0.87,0.65,1.88,0.53,2.86
			c-0.07,0.59,0.1,0.88,0.61,1.03c0.85,0.24,1.69,0.51,2.55,0.67c0.96,0.18,0.96,0.13,1.38-0.77c0.12-0.26,0.25-0.51,0.41-0.75
			c1.33-2.11,3.66-1.74,4.87-0.14c0.69,0.91,0.7,0.96,1.7,0.5c0.77-0.35,1.5-0.8,2.21-1.26c0.47-0.3,0.67-0.7,0.31-1.28
			c-0.24-0.39-0.31-0.89-0.46-1.34c0.03-0.01,0.05-0.02,0.08-0.02c-0.03-0.24-0.12-0.5-0.07-0.72c0.09-0.35,0.25-0.71,0.47-1.05
			l-3.79-3.05c-1.02,1.27-2.45,2.04-3.74,2.21c-4.06,0.52-6.99-2.65-7-5.38c-0.41-1.36,0.18-3.04,1.3-4.4l-3.78-3.04
			C56.31,91.52,55.85,91.91,55.2,92.16z"/>
	</g>
	<g>
		<path class="st23" d="M59.46,25.06c-1.27-1.02-3.05-1.62-5.2-1.22c-2.56,0.48-5.05,3.67-4.76,6.52c0.16,1.59,1.13,3.09,2.38,4.12"
			/>
		<path class="st16" d="M49.5,30.37c-0.29-2.86,2.2-6.04,4.76-6.52c2.15-0.41,3.92,0.19,5.2,1.22l3.05-3.79
			c-0.97-0.62-1.76-1.71-1.49-3.02c0.04-0.19,0.09-0.38,0.12-0.58c0.06-0.49-0.03-0.86-0.62-0.97c-0.72-0.14-1.44-0.35-2.15-0.52
			c-1.22-0.31-1.34-0.27-1.78,0.89c-0.54,1.43-2.23,2.22-3.51,1.83c-0.84-0.25-1.49-0.77-1.94-1.49c-0.3-0.48-0.75-0.57-1.13-0.38
			c-0.91,0.45-1.78,1.01-2.65,1.54c-0.42,0.25-0.44,0.63-0.28,1.05c0.07,0.18,0.16,0.36,0.22,0.55c0.3,0.87,0.42,1.76-0.02,2.59
			c-0.63,1.19-2.02,1.8-3.35,1.54c-0.82-0.16-1.12-0.04-1.39,0.74c-0.3,0.86-0.53,1.74-0.72,2.62c-0.1,0.43,0.12,0.78,0.55,0.97
			c0.42,0.19,0.86,0.38,1.25,0.62c0.86,0.55,1.32,1.41,1.27,2.4c-0.05,1.18-0.64,2.15-1.7,2.75c-0.32,0.18-0.47,0.42-0.33,0.74
			c0.32,0.72,0.63,1.46,1.03,2.13c0.79,1.3,0.8,1.24,2.28,0.79c0.99-0.3,1.94-0.24,2.69,0.22l3.04-3.78
			C50.64,33.45,49.67,31.96,49.5,30.37z"/>
		<path class="st24" d="M49.97,39.67c0.24,0.61,0.14,1.38,0.13,2.07c-0.01,0.49,0.03,0.92,0.56,1.08c0.88,0.28,1.76,0.56,2.66,0.76
			c0.72,0.16,0.93-0.05,1.24-0.77c0.53-1.24,1.31-2.18,2.8-2.23c1.24-0.04,2.07,0.56,2.73,1.57c0.18,0.27,0.82,0.53,1.08,0.42
			c0.95-0.43,1.86-0.96,2.71-1.55c0.57-0.39,0.6-0.81,0.2-1.4c-0.86-1.29-0.28-2.97,0.72-3.77c0.87-0.7,1.88-0.65,2.86-0.53
			c0.59,0.07,0.88-0.1,1.03-0.61c0.24-0.85,0.51-1.69,0.67-2.55c0.18-0.96,0.13-0.96-0.77-1.38c-0.26-0.12-0.51-0.25-0.75-0.41
			c-2.11-1.33-1.74-3.66-0.14-4.87c0.91-0.69,0.96-0.7,0.5-1.7c-0.35-0.77-0.8-1.5-1.26-2.21c-0.3-0.47-0.7-0.67-1.28-0.31
			c-0.39,0.24-0.89,0.31-1.34,0.46c-0.01-0.03-0.02-0.05-0.02-0.08c-0.24,0.03-0.5,0.12-0.72,0.07c-0.35-0.09-0.71-0.25-1.05-0.47
			l-3.05,3.79c1.27,1.02,2.04,2.45,2.21,3.74c0.52,4.06-2.65,6.99-5.38,7c-1.36,0.41-3.04-0.18-4.4-1.3l-3.04,3.78
			C49.33,38.57,49.72,39.03,49.97,39.67z"/>
		<path class="st18" d="M49.97,39.67c0.24,0.61,0.14,1.38,0.13,2.07c-0.01,0.49,0.03,0.92,0.56,1.08c0.88,0.28,1.76,0.56,2.66,0.76
			c0.72,0.16,0.93-0.05,1.24-0.77c0.53-1.24,1.31-2.18,2.8-2.23c1.24-0.04,2.07,0.56,2.73,1.57c0.18,0.27,0.82,0.53,1.08,0.42
			c0.95-0.43,1.86-0.96,2.71-1.55c0.57-0.39,0.6-0.81,0.2-1.4c-0.86-1.29-0.28-2.97,0.72-3.77c0.87-0.7,1.88-0.65,2.86-0.53
			c0.59,0.07,0.88-0.1,1.03-0.61c0.24-0.85,0.51-1.69,0.67-2.55c0.18-0.96,0.13-0.96-0.77-1.38c-0.26-0.12-0.51-0.25-0.75-0.41
			c-2.11-1.33-1.74-3.66-0.14-4.87c0.91-0.69,0.96-0.7,0.5-1.7c-0.35-0.77-0.8-1.5-1.26-2.21c-0.3-0.47-0.7-0.67-1.28-0.31
			c-0.39,0.24-0.89,0.31-1.34,0.46c-0.01-0.03-0.02-0.05-0.02-0.08c-0.24,0.03-0.5,0.12-0.72,0.07c-0.35-0.09-0.71-0.25-1.05-0.47
			l-3.05,3.79c1.27,1.02,2.04,2.45,2.21,3.74c0.52,4.06-2.65,6.99-5.38,7c-1.36,0.41-3.04-0.18-4.4-1.3l-3.04,3.78
			C49.33,38.57,49.72,39.03,49.97,39.67z"/>
	</g>
</g>
</svg>
